<?xml version="1.0" encoding="UTF-8"?>
<svg version="1.1" xmlns="http://www.w3.org/2000/svg" width="1024" height="1024">
<path d="M0 0 C337.92 0 675.84 0 1024 0 C1024 337.92 1024 675.84 1024 1024 C686.08 1024 348.16 1024 0 1024 C0 686.08 0 348.16 0 0 Z " fill="#171717" transform="translate(0,0)"/>
<path d="M0 0 C0.9057737 -0.00175304 1.81154741 -0.00350607 2.7447688 -0.00531223 C5.78396464 -0.00996911 8.82311258 -0.00750752 11.86231041 -0.00507832 C14.06173058 -0.00694645 16.26115043 -0.00924716 18.46056974 -0.01194364 C24.5081005 -0.01806785 30.55561745 -0.01792731 36.60315061 -0.01674926 C42.45450118 -0.01656634 48.30584699 -0.02105562 54.15719571 -0.02536215 C67.60458713 -0.03503277 81.05197473 -0.0378463 94.49936922 -0.03841921 C104.88572478 -0.03887881 115.27207884 -0.04093748 125.65843391 -0.04411983 C128.64855778 -0.04501739 131.63868165 -0.0459072 134.62880552 -0.04679471 C135.37217277 -0.04701576 136.11554002 -0.04723681 136.88143356 -0.04746456 C157.79146439 -0.05361886 178.70149471 -0.05756512 199.61152649 -0.05712128 C200.39988392 -0.0571057 201.18824134 -0.05709012 202.00048839 -0.05707407 C205.99616641 -0.05699096 209.99184442 -0.05689192 213.98752244 -0.05678936 C215.17784419 -0.05675944 215.17784419 -0.05675944 216.39221285 -0.05672892 C217.99696083 -0.05668848 219.60170881 -0.05664669 221.20645679 -0.05660353 C246.16754265 -0.05599093 271.12861492 -0.06349454 296.08969688 -0.07717609 C324.13754814 -0.09254324 352.18539047 -0.10114192 380.23324621 -0.10021287 C383.2252562 -0.10013824 386.2172662 -0.10008954 389.2092762 -0.10005856 C389.94597655 -0.1000469 390.68267691 -0.10003525 391.44170152 -0.10002324 C403.28761808 -0.09999249 415.13352283 -0.10637338 426.97943588 -0.11499082 C438.88997767 -0.12347592 450.8005022 -0.12445056 462.71104534 -0.1178815 C469.1611688 -0.11461504 475.61124954 -0.11456421 482.06136894 -0.12323475 C487.96957962 -0.13109508 493.87771365 -0.12967299 499.78592245 -0.12095062 C501.91984729 -0.1194146 504.05377783 -0.12123561 506.18769594 -0.12681069 C538.26363369 -0.20504165 564.60493862 8.05233106 588.02280235 30.81613445 C594.47252137 37.30001605 599.37176687 44.17267201 603.83530235 52.12863445 C604.47081017 53.24882977 605.10631798 54.36902508 605.7610836 55.5231657 C615.93504853 74.58573382 618.14010919 94.25002882 618.09599876 115.54638958 C618.09902238 117.61869376 618.10291292 119.69099682 618.10759133 121.76329792 C618.11785313 127.43644563 618.11569411 133.10953003 618.11141074 138.7826829 C618.10894017 144.90966978 618.11796186 151.03664154 618.12544823 157.16362286 C618.13818872 169.15965452 618.13999545 181.15565851 618.13764796 193.15169378 C618.13581266 202.90573745 618.13757989 212.65977456 618.14187241 222.41381741 C618.14247482 223.81703338 618.14307602 225.22024935 618.14367601 226.62346532 C618.1445833 228.73821011 618.14549197 230.85295489 618.14640836 232.96769967 C618.15483419 252.62205355 618.15917623 272.27640496 618.15500164 291.93076038 C618.15484526 292.67119297 618.15468889 293.41162556 618.15452777 294.17449549 C618.15372204 297.92696654 618.15287627 301.67943758 618.15201447 305.43190862 C618.15184338 306.17710764 618.1516723 306.92230667 618.15149602 307.69008748 C618.15114937 309.19706068 618.15080084 310.70403388 618.15045044 312.21100708 C618.14509563 335.64905922 618.15301834 359.08707371 618.17148399 382.52511883 C618.19222612 408.88325383 618.20292236 435.24136551 618.19890851 461.59950912 C618.19851319 464.41319171 618.19815164 467.22687431 618.19781113 470.04055691 C618.19772039 470.73330998 618.19762966 471.42606305 618.19753618 472.13980864 C618.19637287 482.5727914 618.20299832 493.00575052 618.21362305 503.43872738 C618.2257041 515.31355868 618.22692396 527.18833635 618.21483288 539.06317301 C618.208955 545.11701892 618.20781455 551.17076361 618.21983528 557.2246027 C618.2307306 562.77639916 618.22754743 568.32801035 618.2135736 573.87979828 C618.21093666 575.87840064 618.2132613 577.8770177 618.22130946 579.8756056 C618.2817334 596.01248089 616.99119889 611.59970078 611.58530235 626.94113445 C611.12969933 628.26165813 611.12969933 628.26165813 610.6648922 629.60885906 C601.69934217 654.80163849 583.29438556 675.67504335 559.2688961 687.41769695 C539.57923411 696.63907334 520.73679922 698.43185489 499.25917625 698.38933086 C497.08543813 698.39235532 494.91170108 698.39624627 492.73796588 698.40092343 C486.79376934 698.41117416 480.84963331 698.40902907 474.90543187 698.40474284 C468.48333665 698.4022703 462.0612558 698.41129631 455.63916588 698.41878033 C443.06889791 698.4319361 430.49864904 698.43332839 417.92837556 698.43098006 C407.70860077 698.42914433 397.48883224 698.43091289 387.26905823 698.43520451 C385.79854285 698.43580692 384.32802747 698.43640812 382.85751209 698.43700811 C380.64133524 698.4379154 378.4251584 698.43882407 376.20898155 698.43974046 C355.61580981 698.4481647 335.02264042 698.45250933 314.4294672 698.44833374 C313.26604557 698.44809918 313.26604557 698.44809918 312.07912047 698.44785987 C308.14838593 698.44705414 304.2176514 698.44620837 300.28691687 698.44534657 C299.50632078 698.44517548 298.72572469 698.4450044 297.92147417 698.44482812 C296.34292122 698.44448147 294.76436827 698.44413294 293.18581532 698.44378254 C268.62633651 698.43842596 244.06689361 698.44635612 219.50742149 698.46481609 C191.8868728 698.48555281 164.26634635 698.49625566 136.64578944 698.49224061 C133.69819089 698.49184529 130.75059233 698.49148374 127.80299377 698.49114323 C126.71440911 698.49100713 126.71440911 698.49100713 125.60383284 698.49086828 C114.67022951 698.48970454 103.7366487 698.49633352 92.80305099 698.50695515 C80.36207029 698.51902914 67.92114262 698.52026361 55.48016103 698.50816498 C49.13681366 698.50228278 42.79356291 698.50115878 36.45022202 698.51316738 C30.63518368 698.52404764 24.82032241 698.52089723 19.00529227 698.5069057 C16.90986368 698.50426469 14.81442111 698.50660638 12.71900626 698.51464156 C-20.44653578 698.63291888 -48.01981155 689.5479647 -72.16469765 666.12863445 C-84.70411046 653.63540732 -93.12065534 637.10934199 -97.97719765 620.19113445 C-98.17208778 619.52509197 -98.36697792 618.85904949 -98.56777382 618.17282391 C-102.3946568 603.86206933 -102.45646586 589.18871696 -102.42539406 574.49560833 C-102.42842031 572.44872552 -102.43231215 570.40184384 -102.43698663 568.35496414 C-102.44721417 562.77066444 -102.44509826 557.18642932 -102.44080603 551.60212445 C-102.43832926 545.56382487 -102.44736469 539.52554046 -102.45484352 533.48724651 C-102.46756578 521.67357946 -102.46939309 509.85993037 -102.46704326 498.04625906 C-102.46520621 488.44057574 -102.46697882 478.83489907 -102.4712677 469.22921658 C-102.47187012 467.8461718 -102.47247131 466.46312703 -102.4730713 465.08008226 C-102.47397861 462.99564036 -102.47488729 460.91119846 -102.47580365 458.82675657 C-102.4842253 439.46318506 -102.48857428 420.09961606 -102.48439693 400.73604298 C-102.48424056 400.00705447 -102.48408418 399.27806597 -102.48392307 398.52698691 C-102.48311736 394.83269501 -102.48227159 391.13840313 -102.48140977 387.44411124 C-102.48123868 386.71049216 -102.48106759 385.97687307 -102.48089132 385.22102311 C-102.48054466 383.7374702 -102.48019613 382.25391729 -102.47984573 380.77036438 C-102.47448882 357.68746143 -102.48242132 334.60459669 -102.50087929 311.52170086 C-102.52162184 285.55174485 -102.53231781 259.58181251 -102.5283038 233.61184776 C-102.52790849 230.83979313 -102.52754694 228.0677385 -102.52720642 225.29568386 C-102.52711569 224.61319884 -102.52702496 223.93071382 -102.52693148 223.22754744 C-102.52576842 212.95165797 -102.53239143 202.6757925 -102.54301834 192.39990902 C-102.55509948 180.7063363 -102.5563189 169.01280689 -102.54422817 157.31923164 C-102.53835108 151.35851963 -102.53720776 145.3979104 -102.54923058 139.43720531 C-102.56012811 133.97068692 -102.55694016 128.50435665 -102.54296889 123.03784691 C-102.54033262 121.07031949 -102.54265447 119.10277713 -102.55070475 117.13526441 C-102.60897581 101.81908731 -101.64715004 86.51247981 -96.47719765 71.94113445 C-96.22301064 71.20685223 -95.96882362 70.47257 -95.70693398 69.7160368 C-86.03997013 42.89390126 -66.38916571 21.61796933 -40.78969765 9.31613445 C-27.81687589 3.37154787 -14.28142337 -0.03516935 0 0 Z " fill="#EE532B" transform="translate(254.16469764709473,162.87136554718018)"/>
<path d="M0 0 C12.1873331 10.93333098 21.02927463 22.57361787 28.01953125 37.28125 C29.39459602 40.27306543 29.39459602 40.27306543 31.4296875 43.1796875 C32.14253906 42.97472656 32.85539062 42.76976562 33.58984375 42.55859375 C34.54761719 42.28917969 35.50539063 42.01976562 36.4921875 41.7421875 C37.43191406 41.47535156 38.37164063 41.20851563 39.33984375 40.93359375 C51.99747492 37.84519575 66.82299966 37.85714176 79.4296875 41.1796875 C80.450625 41.43621094 81.4715625 41.69273437 82.5234375 41.95703125 C102.39522016 47.46908525 119.38969967 60.22175797 129.7421875 78.1171875 C141.35080556 99.04021923 143.15179479 121.14164957 137.06689453 143.98291016 C130.44069582 166.82679367 114.93632981 182.40389863 94.6875 193.7109375 C89.23546073 196.42867136 83.63546649 198.0547557 77.7421875 199.4921875 C77.0411792 199.66403564 76.3401709 199.83588379 75.61791992 200.01293945 C74.93318604 200.16722412 74.24845215 200.32150879 73.54296875 200.48046875 C72.94266846 200.61622314 72.34236816 200.75197754 71.72387695 200.8918457 C68.31784286 201.31918573 64.86242514 201.1796875 61.4296875 201.1796875 C61.4296875 236.4896875 61.4296875 271.7996875 61.4296875 308.1796875 C48.5596875 304.2196875 48.5596875 304.2196875 35.4296875 300.1796875 C22.32942335 297.01501695 9.22365907 294.55296836 -4.0703125 292.4296875 C-4.73323303 292.32250397 -5.39615356 292.21532043 -6.0791626 292.10488892 C-8.02284724 291.79358411 -9.9684576 291.49438145 -11.9140625 291.1953125 C-13.02974609 291.02290039 -14.14542969 290.85048828 -15.29492188 290.67285156 C-26.82867121 289.19522606 -38.46336053 289.0087412 -50.07421875 288.9765625 C-51.13928807 288.97232143 -51.13928807 288.97232143 -52.22587395 288.96799469 C-55.99523132 288.95314334 -59.76455192 288.94382964 -63.53393555 288.93945312 C-66.57312258 288.93510453 -69.61201994 288.92133372 -72.65112305 288.8984375 C-98.5720874 288.7074308 -124.17949203 289.8339346 -149.6953125 294.8671875 C-150.33457672 294.98919525 -150.97384094 295.111203 -151.63247681 295.23690796 C-164.97914021 297.79306807 -177.96068469 301.41241473 -190.94018555 305.42700195 C-193.44908361 306.14499441 -196.01137592 306.66790018 -198.5703125 307.1796875 C-198.5703125 275.8296875 -198.5703125 244.4796875 -198.5703125 212.1796875 C-188.3403125 212.1796875 -178.1103125 212.1796875 -167.5703125 212.1796875 C-161.63677496 211.45313188 -156.26659105 210.69030281 -150.5703125 209.1796875 C-149.80283691 208.98632812 -149.03536133 208.79296875 -148.24462891 208.59375 C-134.41486296 205.04667368 -120.20075263 200.18070606 -108.390625 191.96875 C-105.34985058 190.0398377 -103.36725113 189.56314033 -99.8203125 189.1796875 C-92.75745138 188.19458109 -86.52192386 186.14742841 -80.5703125 182.1796875 C-82.47073001 180.27926999 -85.9035558 180.45230885 -88.4453125 180.0546875 C-111.88697703 175.9252887 -132.22328525 164.41033784 -148.5703125 147.1796875 C-144.17220915 158.79311247 -138.26816697 172.04778452 -127.5703125 179.1796875 C-128.97419461 183.39133382 -131.93073089 184.45901358 -135.6328125 186.4921875 C-136.70668213 187.08604248 -136.70668213 187.08604248 -137.80224609 187.69189453 C-161.56431155 200.49005049 -191.37440067 205.94848632 -217.6796875 198.43359375 C-240.27889858 191.36154132 -257.68902741 177.37303651 -268.7578125 156.3671875 C-277.64693556 137.92344554 -280.24502179 114.41442687 -273.9609375 94.69921875 C-269.63492698 83.7505236 -264.5889991 73.91898264 -256.5703125 65.1796875 C-255.90644531 64.42429687 -255.24257813 63.66890625 -254.55859375 62.890625 C-241.18706496 48.50572711 -222.07795058 39.76619076 -202.50390625 38.89453125 C-190.34948565 38.58959741 -178.90698507 39.38660902 -167.5703125 44.1796875 C-167.2403125 42.9834375 -166.9103125 41.7871875 -166.5703125 40.5546875 C-158.50202104 16.50133032 -138.12024548 -2.60948673 -115.93847656 -13.79882812 C-78.73869284 -31.65005732 -31.69244097 -26.70477812 0 0 Z " fill="#FEF7ED" transform="translate(580.5703125,257.8203125)"/>
<path d="M0 0 C1.99001072 -0.00607171 3.98000145 -0.01783884 5.96998596 -0.02972031 C42.46254006 -0.20131269 97.9911682 0.21846083 129.71669006 21.36880875 C130.08418274 23.53874588 130.08418274 23.53874588 130.07313538 26.26163101 C130.07763702 27.78815041 130.07763702 27.78815041 130.08222961 29.34550858 C130.06370941 30.99866325 130.06370941 30.99866325 130.04481506 32.685215 C130.04294189 33.81201172 130.04106873 34.93880844 130.03913879 36.09975052 C130.0324077 38.48463265 130.01847244 40.86950355 129.99794006 43.25430679 C129.96679016 46.91953068 129.95697175 50.58432502 129.95106506 54.24966812 C129.94189545 56.56152236 129.93151981 58.8733722 129.91981506 61.185215 C129.91556519 62.28934235 129.91131531 63.3934697 129.90693665 64.53105545 C129.89252533 66.0528466 129.89252533 66.0528466 129.87782288 67.60538101 C129.86758087 68.95201576 129.86758087 68.95201576 129.85713196 70.32585526 C129.71669006 72.36880875 129.71669006 72.36880875 128.71669006 73.36880875 C124.3032778 73.69035735 121.4349916 73.06683214 117.46669006 71.18130875 C97.6663706 62.52783579 75.0561622 58.83248044 53.71669006 56.36880875 C52.38251038 56.21001236 52.38251038 56.21001236 51.02137756 56.04800797 C33.90566978 54.12492897 16.73084286 54.15911081 -0.47080994 54.11880875 C-1.6139566 54.11354172 -2.75710327 54.10827469 -3.93489075 54.10284805 C-25.48651091 54.02620411 -46.73484519 55.34944608 -68.03330994 58.68130875 C-68.72811462 58.78863327 -69.42291931 58.89595779 -70.13877869 59.00653458 C-85.76513629 61.4345884 -100.84639178 64.74662285 -115.64463806 70.40176773 C-119.85286529 71.99150715 -123.79535015 72.98970158 -128.28330994 73.36880875 C-128.94330994 73.03880875 -129.60330994 72.70880875 -130.28330994 72.36880875 C-130.28330994 55.20880875 -130.28330994 38.04880875 -130.28330994 20.36880875 C-102.42478112 11.08263247 -102.42478112 11.08263247 -93.40830994 9.05630875 C-92.36408875 8.81614029 -91.31986755 8.57597183 -90.2440033 8.32852554 C-87.26113835 7.65453154 -84.27450373 7.00469447 -81.28330994 6.36880875 C-80.52518005 6.20542007 -79.76705017 6.0420314 -78.98594666 5.87369156 C-73.77980801 4.78678952 -68.55868166 4.0324015 -63.28330994 3.36880875 C-61.75842957 3.1657814 -61.75842957 3.1657814 -60.20274353 2.9586525 C-40.1896327 0.4122071 -20.15233857 0.04799675 0 0 Z " fill="#FEF7ED" transform="translate(512.2833099365234,558.6311912536621)"/>
<path d="M0 0 C7.51392111 5.01371373 11.18338366 11.55015099 14 20 C14.77443407 31.89581508 14.52403084 41.62825197 6.8125 51.3125 C0.6140085 57.91175604 -6.58231815 61.02902746 -15.53344727 61.34350586 C-25.55240006 61.49436904 -32.36495885 59.62910153 -39.875 52.625 C-47.11894766 44.75040278 -49.58667814 36.08527673 -49.3671875 25.4765625 C-48.35388564 15.88253429 -44.56147595 8.2213673 -37.36328125 1.8125 C-26.86506578 -6.23902393 -11.43437812 -6.91810669 0 0 Z " fill="#FEF6EE" transform="translate(406,705)"/>
<path d="M0 0 C8.38497423 5.13778111 13.22985676 11.68957028 16.3125 20.9375 C17.08772417 33.55713281 16.90605891 43.50049682 8.75 53.75 C2.59278239 60.1218729 -3.82104052 63.0500964 -12.7109375 63.47412109 C-23.09756418 63.60202333 -30.26242832 61.00595461 -37.89453125 53.9375 C-46.12396944 44.75782167 -46.35570767 34.738091 -45.86230469 23.03076172 C-45.20899278 15.20744284 -40.28527861 9.11770238 -34.6875 3.9375 C-25.1539975 -3.12500277 -11.0328509 -5.20900855 0 0 Z " fill="#FEF7EE" transform="translate(334.6875,703.0625)"/>
<path d="M0 0 C6.1771995 3.58845831 11.05257632 8.63400392 15.29296875 14.33203125 C15.29296875 14.99203125 15.29296875 15.65203125 15.29296875 16.33203125 C13.00422702 17.67061649 10.71227219 19.00304139 8.41796875 20.33203125 C7.76699219 20.71359375 7.11601563 21.09515625 6.4453125 21.48828125 C1.51953125 24.33203125 1.51953125 24.33203125 -0.70703125 24.33203125 C-3.70703125 20.87049279 -3.70703125 20.87049279 -3.70703125 18.33203125 C-4.49078125 18.02265625 -5.27453125 17.71328125 -6.08203125 17.39453125 C-8.70703125 16.33203125 -8.70703125 16.33203125 -10.70703125 15.33203125 C-18.41261085 14.67463215 -24.52847694 14.41440639 -30.70703125 19.33203125 C-36.00831535 24.41924925 -39.30352176 29.73316283 -40.140625 37.19921875 C-40.16400404 38.5349523 -40.1648021 39.87124691 -40.14453125 41.20703125 C-40.13695801 41.90884521 -40.12938477 42.61065918 -40.12158203 43.33374023 C-39.85619641 51.71082141 -36.9991507 57.80630741 -31.32421875 63.890625 C-26.37265585 68.30397454 -20.79881373 68.92885656 -14.421875 68.75390625 C-10.05899938 68.07593421 -7.09746853 66.05010333 -3.70703125 63.33203125 C-2.35738281 62.25695312 -2.35738281 62.25695312 -0.98046875 61.16015625 C-0.23023438 60.556875 0.52 59.95359375 1.29296875 59.33203125 C3.46814012 60.58992568 5.63234685 61.86208312 7.79296875 63.14453125 C8.41300781 63.50095703 9.03304687 63.85738281 9.671875 64.22460938 C11.26435755 65.17834892 12.78542959 66.24900518 14.29296875 67.33203125 C14.29296875 72.27560319 10.64566152 74.95288726 7.29296875 78.33203125 C-0.50209916 85.6061877 -10.46894703 86.83244694 -20.78491211 86.75366211 C-32.67242875 86.32409532 -41.37362725 81.07941739 -49.39453125 72.64453125 C-58.5060195 61.74402933 -60.89849572 48.15301908 -59.70703125 34.33203125 C-57.13994702 21.49661012 -51.41174225 11.02711104 -40.70703125 3.33203125 C-28.54944248 -3.75108569 -13.25534461 -5.81591089 0 0 Z " fill="#FEF6ED" transform="translate(542.70703125,679.66796875)"/>
<path d="M0 0 C4.60614372 3.53925607 8.76726781 7.15090172 12 12 C11.9609375 13.953125 11.9609375 13.953125 11 16 C8.6015625 17.921875 8.6015625 17.921875 5.625 19.75 C4.64789063 20.36359375 3.67078125 20.9771875 2.6640625 21.609375 C0 23 0 23 -3 23 C-4.46484375 21.5390625 -4.46484375 21.5390625 -5.9375 19.625 C-8.06873518 16.86291921 -9.68608363 15.1986506 -13 14 C-20.63938194 13.14119366 -26.8869597 13.13451895 -33 18 C-39.72540701 24.45383475 -42.1526589 30.09225915 -42.375 39.375 C-42.13974011 48.92655149 -40.562207 55.3317267 -33.87890625 62.3359375 C-28.98161499 66.67324743 -23.82697497 67.56355548 -17.49609375 67.3515625 C-11.99569696 66.57685873 -8.20197869 64.32217656 -4.5 60.25 C-4.005 59.5075 -3.51 58.765 -3 58 C0.69876091 59.37287342 3.9514476 61.06355453 7.3125 63.125 C8.19550781 63.66382813 9.07851563 64.20265625 9.98828125 64.7578125 C10.65214844 65.16773438 11.31601562 65.57765625 12 66 C9.00788794 74.7269935 2.80989319 78.74404697 -5 83 C-13.9480189 87.04791331 -26.6800209 86.26923094 -35.734375 83.03125 C-45.39114011 78.63575692 -53.82079393 71.08694029 -58.19140625 61.27734375 C-63.60558166 46.02872411 -63.52291588 32.02960115 -56.75 17.27734375 C-51.53508555 7.69197542 -43.41446249 0.40394883 -33 -3 C-22.86462966 -5.83769301 -9.12894568 -5.45140832 0 0 Z " fill="#FEF6EE" transform="translate(272,681)"/>
<path d="M0 0 C0.33 0 0.66 0 1 0 C1 29.37 1 58.74 1 89 C-1.17652339 85.73521492 -1.32108176 84.32159941 -1.5625 80.5 C-1.76817016 77.37717143 -2.00550945 74.98347164 -3 72 C-4.64010495 71.27042617 -6.31315815 70.61382962 -8 70 C-9.78987319 68.99139993 -11.56117681 67.94914489 -13.3125 66.875 C-14.19550781 66.33617187 -15.07851563 65.79734375 -15.98828125 65.2421875 C-16.65214844 64.83226562 -17.31601562 64.42234375 -18 64 C-18.43570313 64.39832031 -18.87140625 64.79664063 -19.3203125 65.20703125 C-25.6996633 70.882168 -30.53811279 73.63522653 -39.2578125 73.33984375 C-46.47458775 72.44545707 -51.06554394 68.68683087 -55.5234375 63.109375 C-61.04701737 55.21854662 -60.95711167 46.31093099 -60 37 C-57.84533456 29.06833304 -52.56993876 23.71214709 -46 19 C-40.37947739 17.12649246 -33.35942775 16.90106855 -27.6953125 18.75390625 C-24.39171957 20.56166633 -21.85848105 22.72032756 -20 26 C-20 26.66 -20 27.32 -20 28 C-19.10796875 27.51789062 -18.2159375 27.03578125 -17.296875 26.5390625 C-16.11460061 25.90100965 -14.93230798 25.2629906 -13.75 24.625 C-12.58984375 23.99851562 -11.4296875 23.37203125 -10.234375 22.7265625 C-8.39120357 21.74264732 -6.53379565 20.78233506 -4.640625 19.8984375 C-2.81254576 19.09983778 -2.81254576 19.09983778 -2 17 C-1.60684921 14.1245468 -1.25350975 11.25888154 -0.9375 8.375 C-0.84662109 7.57320312 -0.75574219 6.77140625 -0.66210938 5.9453125 C-0.43802347 3.96392132 -0.2185725 1.98200695 0 0 Z " fill="#ED5028" transform="translate(562,676)"/>
<path d="M0 0 C6.60376698 3.94221503 12.73838616 10.14293336 15.109375 17.60546875 C16.02146976 23.3425448 15.87913684 29.28066326 15.5 35.0625 C14.5 36.0625 14.5 36.0625 10.71459961 36.17602539 C9.02717271 36.17586622 7.33974095 36.17016917 5.65234375 36.16015625 C4.32270348 36.15803383 4.32270348 36.15803383 2.96620178 36.15586853 C0.12326746 36.15025215 -2.71958931 36.13769691 -5.5625 36.125 C-7.48502491 36.11998711 -9.40755104 36.11542384 -11.33007812 36.11132812 C-16.05341549 36.10027741 -20.77669458 36.08300183 -25.5 36.0625 C-24.89095827 37.52346699 -24.27223355 38.98040006 -23.64941406 40.43554688 C-23.30589905 41.2472937 -22.96238403 42.05904053 -22.60845947 42.89538574 C-21.08872303 45.86657467 -19.6095078 46.90807195 -16.5 48.0625 C-8.12899829 49.46546118 -2.43782145 47.6877143 4.5 43.0625 C8.955 47.0225 8.955 47.0225 13.5 51.0625 C11.51622802 55.03004397 10.7707195 55.90022985 7.25 58.1875 C6.50234375 58.68507813 5.7546875 59.18265625 4.984375 59.6953125 C-3.39310503 64.30556094 -14.09116565 64.54078085 -23.328125 62.41015625 C-31.47461402 59.09174376 -37.873945 53.01192827 -41.5 45.0625 C-44.92697125 35.29563194 -44.91493848 24.17043087 -40.8828125 14.59765625 C-37.08430192 7.63372018 -31.77241124 2.11370683 -24.46875 -1.12109375 C-16.58375635 -3.289467 -7.5465393 -3.34237157 0 0 Z " fill="#FEF5ED" transform="translate(631.5,702.9375)"/>
<path d="M0 0 C8.02202868 4.47153821 10.76660038 9.58007509 14.109375 18.17578125 C14.109375 23.78578125 14.109375 29.39578125 14.109375 35.17578125 C0.909375 35.17578125 -12.290625 35.17578125 -25.890625 35.17578125 C-23.53455271 43.04406844 -23.53455271 43.04406844 -17.890625 47.17578125 C-11.27667264 47.98394678 -5.60813351 47.89216178 0.109375 44.17578125 C1.43688657 43.49759599 2.76929736 42.82878519 4.109375 42.17578125 C5.47814616 43.40977188 6.82906666 44.66358748 8.171875 45.92578125 C8.92597656 46.621875 9.68007813 47.31796875 10.45703125 48.03515625 C12.109375 50.17578125 12.109375 50.17578125 12.109375 52.24609375 C9.55440978 57.1763782 3.4446267 59.66930647 -1.515625 61.55078125 C-13.47551083 63.84707933 -24.06270684 62.68478381 -34.203125 55.98828125 C-42.37276736 47.43865552 -44.32536719 37.4052113 -44.32885742 25.96191406 C-44.17581382 19.37901674 -42.73909825 14.59374359 -38.890625 9.17578125 C-38.21 8.10328125 -37.529375 7.03078125 -36.828125 5.92578125 C-27.37611557 -4.34814204 -12.19163386 -5.79700238 0 0 Z " fill="#FEF5ED" transform="translate(754.890625,703.82421875)"/>
<path d="M0 0 C5.28 0 10.56 0 16 0 C16.33 15.51 16.66 31.02 17 47 C25.50248256 37.19790863 25.50248256 37.19790863 29.3125 30.3125 C31.40685094 27.57904815 32.87402065 26.2080017 36.30224609 25.57470703 C42.21934752 25.13700962 48.09979925 25.45212422 54 26 C51.21936343 30.39667712 48.14232306 34.21828871 44.5625 38 C43.16179547 39.4920126 41.76571738 40.98710748 40.38330078 42.49609375 C39.43850013 43.52326848 38.47763055 44.53583345 37.50341797 45.53515625 C35.8827947 47.22084087 35.8827947 47.22084087 34 50 C34.1941475 54.74502678 36.82377074 58.16339051 39.4375 61.9453125 C39.87763428 62.59700409 40.31776855 63.24869568 40.77124023 63.9201355 C42.17322983 65.99369948 43.58589895 68.05968088 45 70.125 C46.41246213 72.1985021 47.82255067 74.27353975 49.22875977 76.35128784 C50.10284272 77.6417122 50.98080341 78.92952033 51.86303711 80.21438599 C53.62078406 82.80050105 55.00540859 85.01622578 56 88 C49.42738426 89.2677152 42.41115412 90.36704236 36 88 C30.82206288 83.26644262 27.91404609 76.62450782 25.12475586 70.29003906 C23.97535766 67.94982741 22.62530273 66.03184699 21 64 C18.4967943 65.74223117 17.15981446 67.16852292 16.57617188 70.20507812 C16.38154975 72.89086351 16.29148075 75.55752255 16.25 78.25 C16.20552734 79.65378906 16.20552734 79.65378906 16.16015625 81.0859375 C16.08961871 83.39016382 16.04252608 85.69508655 16 88 C10.72 88 5.44 88 0 88 C0 58.96 0 29.92 0 0 Z " fill="#FEF7EF" transform="translate(428,676)"/>
<path d="M0 0 C5.94 0 11.88 0 18 0 C19.51308222 4.51612655 21.0251812 9.03255981 22.53491211 13.54980469 C23.04737875 15.0822167 23.56038668 16.6144478 24.07397461 18.14648438 C26.83895603 26.3956597 29.5931612 34.6372332 32 43 C33.67432077 38.00187356 35.34661619 33.00307565 37.01708984 28.00366211 C37.58490137 26.30523667 38.15325278 24.60699162 38.72216797 22.90893555 C39.54278454 20.45930167 40.36141685 18.00901211 41.1796875 15.55859375 C41.43185028 14.80726669 41.68401306 14.05593964 41.94381714 13.28184509 C42.30396408 12.20151756 42.30396408 12.20151756 42.67138672 11.09936523 C42.88012421 10.47537338 43.08886169 9.85138153 43.30392456 9.20848083 C44.26536524 6.15805958 45.12134588 3.07528941 46 0 C52.27 0 58.54 0 65 0 C60.46758346 13.02628285 55.85724654 26.01847481 51.11816406 38.97094727 C50.1017785 41.75101662 49.08993032 44.53271397 48.078125 47.31445312 C47.42995908 49.08864091 46.78153225 50.8627334 46.1328125 52.63671875 C45.83182648 53.46564133 45.53084045 54.2945639 45.22073364 55.14860535 C43.11445136 60.88554864 43.11445136 60.88554864 42 62 C40.5112814 62.08669432 39.018555 62.10703494 37.52734375 62.09765625 C36.62822266 62.09443359 35.72910156 62.09121094 34.80273438 62.08789062 C33.38444336 62.07532227 33.38444336 62.07532227 31.9375 62.0625 C30.98810547 62.05798828 30.03871094 62.05347656 29.06054688 62.04882812 C26.70696935 62.0370011 24.35351523 62.02052025 22 62 C16.45190594 47.47862199 10.93550508 32.94494037 5.54800415 18.36309814 C5.05846028 17.03984082 4.56723366 15.71720479 4.0743103 14.39520264 C3.38460525 12.54388754 2.70190509 10.68996732 2.01953125 8.8359375 C1.62870361 7.77938965 1.23787598 6.7228418 0.83520508 5.63427734 C0 3 0 3 0 0 Z " fill="#FEF6EE" transform="translate(647,702)"/>
<path d="M0 0 C5.61 0 11.22 0 17 0 C17 29.37 17 58.74 17 89 C11.39 89 5.78 89 0 89 C0 59.63 0 30.26 0 0 Z " fill="#FEF8EF" transform="translate(563,676)"/>
<path d="M0 0 C1.32 0.66 2.64 1.32 4 2 C3.01 7.61 2.02 13.22 1 19 C-0.32 18.67 -1.64 18.34 -3 18 C-7.92637659 17.38310132 -10.9622642 17.20007865 -15 20.3125 C-18.39516848 24.87475765 -18.20427773 29.13258997 -18.31640625 34.60546875 C-18.33718735 35.44467361 -18.35796844 36.28387848 -18.37937927 37.14851379 C-18.44474018 39.82809294 -18.50369714 42.50776969 -18.5625 45.1875 C-18.60569802 47.00456737 -18.64931273 48.82162488 -18.69335938 50.63867188 C-18.80119168 55.09234934 -18.90036495 59.54610139 -19 64 C-24.61 64 -30.22 64 -36 64 C-36 43.21 -36 22.42 -36 1 C-31.05 1 -26.1 1 -21 1 C-21 3.64 -21 6.28 -21 9 C-20.34 9 -19.68 9 -19 9 C-18.95875 8.443125 -18.9175 7.88625 -18.875 7.3125 C-15.66412687 -1.17337898 -7.83058654 -1.03608039 0 0 Z " fill="#FEF7EE" transform="translate(812,701)"/>
<path d="M0 0 C4.75043472 2.63235098 7.39742785 5.80856909 9 11 C9.64474083 17.69023272 10.06356644 24.34003246 6 30 C3.63254428 32.73737067 2.45870295 33.84709902 -1 35 C-6.30934666 35.34253849 -9.74909723 35.54241898 -14 32 C-19.18779375 25.08294167 -19.6044306 19.4396421 -19 11 C-17.60900503 6.74973759 -15.46837897 3.67594489 -11.8671875 0.92578125 C-7.99449557 -0.99436098 -4.15574971 -0.93225349 0 0 Z " fill="#ED5028" transform="translate(325,716)"/>
<path d="M0 0 C4.31794715 2.03676753 7.10422165 4.58474807 9.30859375 8.8828125 C11.16985215 14.58225913 10.64506206 20.79236631 8.8125 26.4375 C6.61155257 30.76350012 4.29109886 32.85445057 0 35 C-5.34012755 35.3501723 -8.67913597 35.48069602 -13 32 C-18.34055036 26.06605516 -18.34515709 21.15125483 -18.28125 13.39453125 C-17.93170278 9.17569051 -16.9525456 7.03234413 -14 4 C-13.278125 3.21625 -12.55625 2.4325 -11.8125 1.625 C-7.82333283 -0.67985214 -4.50113971 -0.77139674 0 0 Z " fill="#EE5028" transform="translate(393,716)"/>
<path d="M0 0 C1.74630529 5.23891587 -0.91019935 10.08176226 -3 15 C-9.50752598 26.48676934 -18.04110192 34.85926317 -30.90649414 38.54638672 C-34.47530642 39.31966406 -38.04874647 39.19121643 -41.6875 39.1875 C-42.89490845 39.1862915 -42.89490845 39.1862915 -44.12670898 39.18505859 C-49.68070135 39.12772561 -54.68454236 38.73960432 -60 37 C-60.33 36.34 -60.66 35.68 -61 35 C-59.9584375 34.79246094 -58.916875 34.58492188 -57.84375 34.37109375 C-34.50882036 29.46093271 -15.12446191 18.72683374 0 0 Z " fill="#ED4E26" transform="translate(602,404)"/>
<path d="M0 0 C3.51483623 2.05032114 5.70332836 4.10998507 7 8 C7 9.65 7 11.3 7 13 C-0.92 13 -8.84 13 -17 13 C-15.81666667 5.9 -15.81666667 5.9 -13 2 C-8.7567553 -0.8288298 -4.98265471 -0.65268001 0 0 Z " fill="#EE522C" transform="translate(623,715)"/>
<path d="M0 0 C3.06281917 1.73559753 5.40097088 3.80194177 7 7 C7 8.98 7 10.96 7 13 C-0.92 13 -8.84 13 -17 13 C-15 5 -15 5 -12.4375 2 C-8.10912371 -0.51832802 -4.89550838 -1.11897334 0 0 Z " fill="#ED4F29" transform="translate(745,715)"/>
<path d="M0 0 C4.95 0 9.9 0 15 0 C15 2.64 15 5.28 15 8 C14.67 8 14.34 8 14 8 C14 6.02 14 4.04 14 2 C10.04 2 6.08 2 2 2 C2 21.47 2 40.94 2 61 C6.95 61 11.9 61 17 61 C17 61.66 17 62.32 17 63 C11.39 63 5.78 63 0 63 C0 42.21 0 21.42 0 0 Z " fill="#FBDBD0" transform="translate(776,702)"/>
<path d="M0 0 C1.3921875 1.2065625 1.3921875 1.2065625 2.8125 2.4375 C4.20669956 3.62691773 5.60275356 4.81416302 7 6 C7.83402344 6.7115625 8.66804688 7.423125 9.52734375 8.15625 C15.714076 13.33996827 22.0845115 17.84000595 29 22 C28.34 22.33 27.68 22.66 27 23 C25.23138813 21.97098946 23.46434554 20.93555301 21.75390625 19.8125 C19.82740378 18.67658569 19.82740378 18.67658569 17 20 C16.67 22.31 16.34 24.62 16 27 C8.46138204 20.12655421 3.65603071 11.46361933 0 2 C0 1.34 0 0.68 0 0 Z " fill="#ED4A23" transform="translate(431,404)"/>
<path d="M0 0 C0.33 0 0.66 0 1 0 C1.13285299 7.53887324 1.26335715 15.07778437 1.39115143 22.616745 C1.450609 26.12033021 1.51076921 29.62389992 1.57275391 33.12744141 C1.87810216 50.41931929 2.07370083 67.70487184 2 85 C6.95 84.67 11.9 84.34 17 84 C17 84.99 17 85.98 17 87 C11.39 87 5.78 87 0 87 C0 58.29 0 29.58 0 0 Z " fill="#FEF2EC" transform="translate(563,678)"/>
<path d="M0 0 C0.33 0 0.66 0 1 0 C1 7.92 1 15.84 1 24 C5.95 23.67 10.9 23.34 16 23 C16 23.99 16 24.98 16 26 C10.39 26 4.78 26 -1 26 C-0.67 17.42 -0.34 8.84 0 0 Z " fill="#FDE6DE" transform="translate(564,739)"/>
<path d="M0 0 C0.87462891 0.00451172 1.74925781 0.00902344 2.65039062 0.01367188 C4.78779047 0.02535166 6.92515463 0.04328311 9.0625 0.0625 C6.13724335 2.58885802 4.42719166 3.44132306 0.5625 3.3125 C-0.30117188 3.28671875 -1.16484375 3.2609375 -2.0546875 3.234375 C-7.02477299 2.93805554 -11.98160527 2.53935585 -16.9375 2.0625 C-16.9375 1.7325 -16.9375 1.4025 -16.9375 1.0625 C-11.24910882 0.0822752 -5.76455667 -0.05698801 0 0 Z " fill="#FDEDE4" transform="translate(639.9375,296.9375)"/>
<path d="M0 0 C6.0546875 -0.1953125 6.0546875 -0.1953125 8 0 C8.66 0.66 9.32 1.32 10 2 C5.97832683 4.96837781 2.99911924 6.52389341 -2 7 C-1.34 6.67 -0.68 6.34 0 6 C0.75243555 4.07361988 0.75243555 4.07361988 1 2 C0.67 1.34 0.34 0.68 0 0 Z " fill="#EC411B" transform="translate(491,438)"/>
<path d="M0 0 C7.48291572 6.15034169 7.48291572 6.15034169 10 10 C8.68 9.34 7.36 8.68 6 8 C6.2165625 8.86625 6.2165625 8.86625 6.4375 9.75 C6.95833333 11.83333333 7.47916667 13.91666667 8 16 C5.13437405 13.52093943 3.8382206 10.87838941 2.3125 7.4375 C1.87550781 6.46683594 1.43851562 5.49617188 0.98828125 4.49609375 C0 2 0 2 0 0 Z " fill="#EA3711" transform="translate(431,404)"/>
<path d="M0 0 C1.2077558 3.62326739 0.54311128 4.64146369 -1 8 C-1.99 8 -2.98 8 -4 8 C-6.12708293 9.76248102 -6.12708293 9.76248102 -8.1875 12 C-8.90292969 12.7425 -9.61835937 13.485 -10.35546875 14.25 C-10.89816406 14.8275 -11.44085937 15.405 -12 16 C-12.66 15.67 -13.32 15.34 -14 15 C-12.73542969 13.75283203 -12.73542969 13.75283203 -11.4453125 12.48046875 C-10.33840925 11.38294603 -9.2316457 10.28528241 -8.125 9.1875 C-7.56941406 8.64029297 -7.01382813 8.09308594 -6.44140625 7.52929688 C-5.90644531 6.99755859 -5.37148438 6.46582031 -4.8203125 5.91796875 C-4.32805176 5.43094482 -3.83579102 4.9439209 -3.32861328 4.44213867 C-1.77411511 2.82996499 -1.77411511 2.82996499 0 0 Z " fill="#EC3510" transform="translate(602,404)"/>
<path d="M0 0 C6.27 0 12.54 0 19 0 C18.34 2.31 17.68 4.62 17 7 C16.67 7 16.34 7 16 7 C16 5.02 16 3.04 16 1 C14.64455078 1.10828125 14.64455078 1.10828125 13.26171875 1.21875 C11.49248047 1.35796875 11.49248047 1.35796875 9.6875 1.5 C8.51574219 1.5928125 7.34398437 1.685625 6.13671875 1.78125 C4.094806 1.92364989 2.0468721 2 0 2 C0 1.34 0 0.68 0 0 Z " fill="#FDEDE6" transform="translate(693,702)"/>
<path d="M0 0 C1.32 0.33 2.64 0.66 4 1 C3.896875 1.7425 3.79375 2.485 3.6875 3.25 C3.7254586 6.25072867 3.7254586 6.25072867 6.5 8.3125 C7.325 8.869375 8.15 9.42625 9 10 C5.49849196 9.70820766 4.21713533 9.21713533 1.6875 6.6875 C0 4 0 4 0 0 Z " fill="#EC421E" transform="translate(607,741)"/>
<path d="M0 0 C2.475 0.495 2.475 0.495 5 1 C4.67 3.64 4.34 6.28 4 9 C2 8 2 8 1.3671875 6.15234375 C1.20476563 5.42144531 1.04234375 4.69054687 0.875 3.9375 C0.70742188 3.20402344 0.53984375 2.47054687 0.3671875 1.71484375 C0.24601563 1.14894531 0.12484375 0.58304688 0 0 Z " fill="#ED4823" transform="translate(676,737)"/>
<path d="M0 0 C0.66 1.32 1.32 2.64 2 4 C0.68 4.99 -0.64 5.98 -2 7 C-2.99 6.34 -3.98 5.68 -5 5 C-3.35 3.35 -1.7 1.7 0 0 Z M-6 6 C-6 6.99 -6 7.98 -6 9 C-6.66 8.67 -7.32 8.34 -8 8 C-7.34 7.34 -6.68 6.68 -6 6 Z " fill="#EC5830" transform="translate(599,410)"/>
<path d="M0 0 C0.66 0.33 1.32 0.66 2 1 C-2.22949995 3.41685712 -5.12335991 4.34833144 -10 4 C-10 3.01 -10 2.02 -10 1 C-8.906875 1.020625 -7.81375 1.04125 -6.6875 1.0625 C-3.05615809 1.18544452 -3.05615809 1.18544452 0 0 Z " fill="#EE441C" transform="translate(261,745)"/>
<path d="M0 0 C1.875 0.25 1.875 0.25 4 1 C5.0625 2.9375 5.0625 2.9375 6 5 C6.99 5.66 7.98 6.32 9 7 C7.68 7.33 6.36 7.66 5 8 C0 2.25 0 2.25 0 0 Z " fill="#FBE6DD" transform="translate(264,696)"/>
<path d="M0 0 C-0.99 0.33 -1.98 0.66 -3 1 C-3 1.66 -3 2.32 -3 3 C-2.34 3.33 -1.68 3.66 -1 4 C-2 5 -2 5 -4.5625 5.0625 C-5.7690625 5.0315625 -5.7690625 5.0315625 -7 5 C-7 3.68 -7 2.36 -7 1 C-4.53721199 -0.231394 -2.7204945 -0.07159196 0 0 Z " fill="#EB411A" transform="translate(556,437)"/>
<path d="M0 0 C1.2380014 3.57644848 0.74926071 6.33694766 0 10 C-0.99 10.33 -1.98 10.66 -3 11 C-2.69078116 9.54096742 -2.37751201 8.08279278 -2.0625 6.625 C-1.88847656 5.81289063 -1.71445312 5.00078125 -1.53515625 4.1640625 C-1 2 -1 2 0 0 Z " fill="#EC421B" transform="translate(718,399)"/>
<path d="M0 0 C1.9453125 -0.29296875 1.9453125 -0.29296875 4.125 -0.1875 C5.40375 -0.125625 6.6825 -0.06375 8 0 C7.67 0.66 7.34 1.32 7 2 C4.93359375 2.4140625 4.93359375 2.4140625 2.4375 2.625 C1.61121094 2.69976563 0.78492188 2.77453125 -0.06640625 2.8515625 C-1.02353516 2.92503906 -1.02353516 2.92503906 -2 3 C-1.34 2.01 -0.68 1.02 0 0 Z " fill="#EB3E1B" transform="translate(613,715)"/>
<path d="M0 0 C1.43836751 0.11458693 2.87570966 0.24209116 4.3125 0.375 C5.51326172 0.47941406 5.51326172 0.47941406 6.73828125 0.5859375 C9 1 9 1 12 3 C9.03 3 6.06 3 3 3 C3 2.34 3 1.68 3 1 C2.01 0.67 1.02 0.34 0 0 Z " fill="#EB3A14" transform="translate(596,620)"/>
<path d="M0 0 C0.5775 0.45375 1.155 0.9075 1.75 1.375 C3.7800333 2.84113516 5.73539843 3.94857784 8 5 C6.35 5.66 4.7 6.32 3 7 C0 2.25 0 2.25 0 0 Z " fill="#ED562E" transform="translate(435,410)"/>
<path d="M0 0 C2.64 0 5.28 0 8 0 C8 0.99 8 1.98 8 3 C5.36 3 2.72 3 0 3 C0 2.01 0 1.02 0 0 Z " fill="#EF5F38" transform="translate(554,558)"/>
<path d="M0 0 C0.66 0.66 1.32 1.32 2 2 C-0.97 3.65 -3.94 5.3 -7 7 C-5.66667905 3.00003714 -3.5042173 2.16217663 0 0 Z " fill="#FDE9E2" transform="translate(281,695)"/>
</svg>
